<mxfile host="app.diagrams.net" modified="2024-06-19T05:14:43.490Z" agent="Mozilla/5.0 (Macintosh; Intel Mac OS X 10.15; rv:127.0) Gecko/20100101 Firefox/127.0" etag="1n8U1IjgN8OAnVaN_cuv" version="24.4.13" type="dropbox">
  <diagram name="Page-1" id="1tmojmHbhIX29bXTTsRL">
    <mxGraphModel dx="661" dy="434" grid="1" gridSize="10" guides="1" tooltips="1" connect="1" arrows="1" fold="1" page="1" pageScale="1" pageWidth="850" pageHeight="1100" math="0" shadow="0">
      <root>
        <mxCell id="0" />
        <mxCell id="1" parent="0" />
        <mxCell id="RlneAtPh-WXHBkzfn9EB-23" value="" style="endArrow=classic;html=1;rounded=0;curved=1;exitX=0;exitY=0.5;exitDx=0;exitDy=0;entryX=1;entryY=0.5;entryDx=0;entryDy=0;" edge="1" parent="1" source="RlneAtPh-WXHBkzfn9EB-10" target="RlneAtPh-WXHBkzfn9EB-8">
          <mxGeometry width="50" height="50" relative="1" as="geometry">
            <mxPoint x="400" y="320" as="sourcePoint" />
            <mxPoint x="450" y="270" as="targetPoint" />
            <Array as="points">
              <mxPoint x="380" y="310" />
            </Array>
          </mxGeometry>
        </mxCell>
        <mxCell id="RlneAtPh-WXHBkzfn9EB-1" value="&lt;b&gt;Dev&lt;/b&gt;" style="text;html=1;align=center;verticalAlign=middle;whiteSpace=wrap;rounded=0;" vertex="1" parent="1">
          <mxGeometry x="260" y="250" width="60" height="30" as="geometry" />
        </mxCell>
        <mxCell id="RlneAtPh-WXHBkzfn9EB-2" value="Code" style="text;html=1;align=center;verticalAlign=middle;whiteSpace=wrap;rounded=0;" vertex="1" parent="1">
          <mxGeometry x="270" y="190" width="40" height="20" as="geometry" />
        </mxCell>
        <mxCell id="RlneAtPh-WXHBkzfn9EB-3" value="Build" style="text;html=1;align=center;verticalAlign=middle;whiteSpace=wrap;rounded=0;rotation=-90;" vertex="1" parent="1">
          <mxGeometry x="201.25" y="255" width="45" height="17.5" as="geometry" />
        </mxCell>
        <mxCell id="RlneAtPh-WXHBkzfn9EB-4" value="Test" style="text;html=1;align=center;verticalAlign=middle;whiteSpace=wrap;rounded=0;" vertex="1" parent="1">
          <mxGeometry x="270" y="320" width="40" height="20" as="geometry" />
        </mxCell>
        <mxCell id="RlneAtPh-WXHBkzfn9EB-6" value="&lt;b&gt;Ops&lt;/b&gt;" style="text;html=1;align=center;verticalAlign=middle;whiteSpace=wrap;rounded=0;" vertex="1" parent="1">
          <mxGeometry x="420" y="250" width="60" height="30" as="geometry" />
        </mxCell>
        <mxCell id="RlneAtPh-WXHBkzfn9EB-7" value="Release" style="text;html=1;align=center;verticalAlign=middle;whiteSpace=wrap;rounded=0;rotation=-65;fillColor=default;" vertex="1" parent="1">
          <mxGeometry x="344.33" y="260" width="60" height="20" as="geometry" />
        </mxCell>
        <mxCell id="RlneAtPh-WXHBkzfn9EB-8" value="Plan" style="text;html=1;align=center;verticalAlign=middle;whiteSpace=wrap;rounded=0;rotation=60;" vertex="1" parent="1">
          <mxGeometry x="333.7" y="228.58" width="30" height="21.42" as="geometry" />
        </mxCell>
        <mxCell id="RlneAtPh-WXHBkzfn9EB-9" value="Deploy" style="text;html=1;align=center;verticalAlign=middle;whiteSpace=wrap;rounded=0;" vertex="1" parent="1">
          <mxGeometry x="430" y="190" width="50" height="20" as="geometry" />
        </mxCell>
        <mxCell id="RlneAtPh-WXHBkzfn9EB-10" value="Monitor" style="text;html=1;align=center;verticalAlign=middle;whiteSpace=wrap;rounded=0;" vertex="1" parent="1">
          <mxGeometry x="420" y="320" width="50" height="20" as="geometry" />
        </mxCell>
        <mxCell id="RlneAtPh-WXHBkzfn9EB-11" value="Operate" style="text;html=1;align=center;verticalAlign=middle;whiteSpace=wrap;rounded=0;rotation=90;" vertex="1" parent="1">
          <mxGeometry x="492.5" y="255" width="55" height="20" as="geometry" />
        </mxCell>
        <mxCell id="RlneAtPh-WXHBkzfn9EB-15" value="" style="endArrow=classic;html=1;rounded=0;exitX=1;exitY=0.5;exitDx=0;exitDy=0;curved=1;entryX=0;entryY=0.5;entryDx=0;entryDy=0;" edge="1" parent="1" source="RlneAtPh-WXHBkzfn9EB-9" target="RlneAtPh-WXHBkzfn9EB-11">
          <mxGeometry width="50" height="50" relative="1" as="geometry">
            <mxPoint x="490" y="190" as="sourcePoint" />
            <mxPoint x="510" y="230" as="targetPoint" />
            <Array as="points">
              <mxPoint x="510" y="210" />
            </Array>
          </mxGeometry>
        </mxCell>
        <mxCell id="RlneAtPh-WXHBkzfn9EB-16" value="" style="endArrow=classic;html=1;rounded=0;exitX=1;exitY=0.5;exitDx=0;exitDy=0;curved=1;entryX=1;entryY=0.5;entryDx=0;entryDy=0;" edge="1" parent="1" source="RlneAtPh-WXHBkzfn9EB-11" target="RlneAtPh-WXHBkzfn9EB-10">
          <mxGeometry width="50" height="50" relative="1" as="geometry">
            <mxPoint x="510" y="355" as="sourcePoint" />
            <mxPoint x="470" y="320" as="targetPoint" />
            <Array as="points">
              <mxPoint x="510" y="320" />
            </Array>
          </mxGeometry>
        </mxCell>
        <mxCell id="RlneAtPh-WXHBkzfn9EB-17" value="" style="endArrow=classic;html=1;rounded=0;entryX=1;entryY=0.5;entryDx=0;entryDy=0;curved=1;exitX=0;exitY=0.5;exitDx=0;exitDy=0;" edge="1" parent="1" source="RlneAtPh-WXHBkzfn9EB-2" target="RlneAtPh-WXHBkzfn9EB-3">
          <mxGeometry width="50" height="50" relative="1" as="geometry">
            <mxPoint x="270" y="210" as="sourcePoint" />
            <mxPoint x="320" y="160" as="targetPoint" />
            <Array as="points">
              <mxPoint x="240" y="205" />
            </Array>
          </mxGeometry>
        </mxCell>
        <mxCell id="RlneAtPh-WXHBkzfn9EB-18" value="" style="endArrow=classic;html=1;rounded=0;entryX=0;entryY=0.5;entryDx=0;entryDy=0;curved=1;exitX=0;exitY=0.5;exitDx=0;exitDy=0;" edge="1" parent="1" source="RlneAtPh-WXHBkzfn9EB-3" target="RlneAtPh-WXHBkzfn9EB-4">
          <mxGeometry width="50" height="50" relative="1" as="geometry">
            <mxPoint x="230" y="290" as="sourcePoint" />
            <mxPoint x="190" y="320" as="targetPoint" />
            <Array as="points">
              <mxPoint x="230" y="320" />
            </Array>
          </mxGeometry>
        </mxCell>
        <mxCell id="RlneAtPh-WXHBkzfn9EB-19" value="" style="endArrow=classic;html=1;rounded=0;exitX=1;exitY=0.5;exitDx=0;exitDy=0;curved=1;entryX=0;entryY=0.5;entryDx=0;entryDy=0;" edge="1" parent="1" source="RlneAtPh-WXHBkzfn9EB-4" target="RlneAtPh-WXHBkzfn9EB-7">
          <mxGeometry width="50" height="50" relative="1" as="geometry">
            <mxPoint x="440" y="310" as="sourcePoint" />
            <mxPoint x="490" y="260" as="targetPoint" />
            <Array as="points">
              <mxPoint x="340" y="330" />
            </Array>
          </mxGeometry>
        </mxCell>
        <mxCell id="RlneAtPh-WXHBkzfn9EB-20" value="" style="endArrow=classic;html=1;rounded=0;entryX=0;entryY=0.5;entryDx=0;entryDy=0;curved=1;exitX=1;exitY=0.5;exitDx=0;exitDy=0;" edge="1" parent="1" source="RlneAtPh-WXHBkzfn9EB-7" target="RlneAtPh-WXHBkzfn9EB-9">
          <mxGeometry width="50" height="50" relative="1" as="geometry">
            <mxPoint x="390" y="250" as="sourcePoint" />
            <mxPoint x="440" y="202.5" as="targetPoint" />
            <Array as="points">
              <mxPoint x="400" y="210" />
            </Array>
          </mxGeometry>
        </mxCell>
        <mxCell id="RlneAtPh-WXHBkzfn9EB-22" value="" style="endArrow=classic;html=1;rounded=0;curved=1;entryX=1;entryY=0.5;entryDx=0;entryDy=0;exitX=0;exitY=0.5;exitDx=0;exitDy=0;" edge="1" parent="1" source="RlneAtPh-WXHBkzfn9EB-8" target="RlneAtPh-WXHBkzfn9EB-2">
          <mxGeometry width="50" height="50" relative="1" as="geometry">
            <mxPoint x="330" y="220" as="sourcePoint" />
            <mxPoint x="380" y="170" as="targetPoint" />
            <Array as="points">
              <mxPoint x="330" y="210" />
            </Array>
          </mxGeometry>
        </mxCell>
      </root>
    </mxGraphModel>
  </diagram>
</mxfile>
